<svg xmlns="http://www.w3.org/2000/svg" version="1.1" width="21.208in" height="16.972in" viewBox = " 0 0 1908.7199999999998 1527.48" >
<!-- Front--> 
<g transform="translate(22.499999999999996, 22.499999999999996) " > 
<polygon style="stroke:#000000; fill:none; stroke-width:0.9" points="0, 0 94.24799999999999, 0 94.24799999999999, 10.62 188.49599999999998, 10.62 188.49599999999998, 0 282.74399999999997, 0 282.74399999999997, 10.62 376.99199999999996, 10.62 376.99199999999996, 0 471.23999999999995, 0 471.23999999999995, 117.80999999999999 460.61999999999995, 117.80999999999999 460.61999999999995, 235.61999999999998 471.23999999999995, 235.61999999999998 471.23999999999995, 325.62 460.61999999999995, 325.62 460.61999999999995, 443.42999999999995 471.23999999999995, 443.42999999999995 471.23999999999995, 561.24 376.99199999999996, 561.24 376.99199999999996, 550.62 282.74399999999997, 550.62 282.74399999999997, 561.24 188.49599999999998, 561.24 188.49599999999998, 550.62 94.24799999999999, 550.62 94.24799999999999, 561.24 0, 561.24 0, 443.42999999999995 10.62, 443.42999999999995 10.62, 325.62 0, 325.62 0, 235.61999999999998 10.62, 235.61999999999998 10.62, 117.80999999999999 0, 117.80999999999999 "/> 
</g>
<!-- Back--> 
<g transform="translate(493.73999999999995, 22.499999999999996) " > 
<polygon style="stroke:#000000; fill:none; stroke-width:0.9" points="0, 0 94.24799999999999, 0 94.24799999999999, 10.62 188.49599999999998, 10.62 188.49599999999998, 0 282.74399999999997, 0 282.74399999999997, 10.62 376.99199999999996, 10.62 376.99199999999996, 0 471.23999999999995, 0 471.23999999999995, 117.80999999999999 460.61999999999995, 117.80999999999999 460.61999999999995, 235.61999999999998 471.23999999999995, 235.61999999999998 471.23999999999995, 325.62 460.61999999999995, 325.62 460.61999999999995, 443.42999999999995 471.23999999999995, 443.42999999999995 471.23999999999995, 561.24 376.99199999999996, 561.24 376.99199999999996, 550.62 282.74399999999997, 550.62 282.74399999999997, 561.24 188.49599999999998, 561.24 188.49599999999998, 550.62 94.24799999999999, 550.62 94.24799999999999, 561.24 0, 561.24 0, 443.42999999999995 10.62, 443.42999999999995 10.62, 325.62 0, 325.62 0, 235.61999999999998 10.62, 235.61999999999998 10.62, 117.80999999999999 0, 117.80999999999999 "/> 
</g>
<!-- Left--> 
<g transform="translate(964.9799999999999, 22.499999999999996) " > 
<polygon style="stroke:#000000; fill:none; stroke-width:0.9" points="10.62, 0 117.81000000000002, 0 117.81000000000002, 10.62 235.62000000000003, 10.62 235.62000000000003, 0 325.62, 0 325.62, 10.62 415.62, 10.62 415.62, 0 505.62, 0 505.62, 10.62 595.62, 10.62 595.62, 0 685.62, 0 685.62, 10.62 803.4300000000001, 10.62 803.4300000000001, 0 910.62, 0 910.62, 117.80999999999999 921.24, 117.80999999999999 921.24, 235.61999999999998 910.62, 235.61999999999998 910.62, 325.62 921.24, 325.62 921.24, 443.42999999999995 910.62, 443.42999999999995 910.62, 561.24 803.4300000000001, 561.24 803.4300000000001, 550.62 685.62, 550.62 685.62, 561.24 595.62, 561.24 595.62, 550.62 505.62, 550.62 505.62, 561.24 415.62, 561.24 415.62, 550.62 325.62, 550.62 325.62, 561.24 235.62000000000003, 561.24 235.62000000000003, 550.62 117.81000000000002, 550.62 117.81000000000002, 561.24 10.62, 561.24 10.62, 443.42999999999995 0, 443.42999999999995 0, 325.62 10.62, 325.62 10.62, 235.61999999999998 0, 235.61999999999998 0, 117.80999999999999 10.62, 117.80999999999999 "/> 
</g>
<!-- Right--> 
<g transform="translate(964.9799999999999, 583.74) " > 
<polygon style="stroke:#000000; fill:none; stroke-width:0.9" points="10.62, 0 117.81000000000002, 0 117.81000000000002, 10.62 235.62000000000003, 10.62 235.62000000000003, 0 325.62, 0 325.62, 10.62 415.62, 10.62 415.62, 0 505.62, 0 505.62, 10.62 595.62, 10.62 595.62, 0 685.62, 0 685.62, 10.62 803.4300000000001, 10.62 803.4300000000001, 0 910.62, 0 910.62, 117.80999999999999 921.24, 117.80999999999999 921.24, 235.61999999999998 910.62, 235.61999999999998 910.62, 325.62 921.24, 325.62 921.24, 443.42999999999995 910.62, 443.42999999999995 910.62, 561.24 803.4300000000001, 561.24 803.4300000000001, 550.62 685.62, 550.62 685.62, 561.24 595.62, 561.24 595.62, 550.62 505.62, 550.62 505.62, 561.24 415.62, 561.24 415.62, 550.62 325.62, 550.62 325.62, 561.24 235.62000000000003, 561.24 235.62000000000003, 550.62 117.81000000000002, 550.62 117.81000000000002, 561.24 10.62, 561.24 10.62, 443.42999999999995 0, 443.42999999999995 0, 325.62 10.62, 325.62 10.62, 235.61999999999998 0, 235.61999999999998 0, 117.80999999999999 10.62, 117.80999999999999 "/> 
</g>
<!-- Top--> 
<g transform="translate(22.499999999999996, 583.74) " > 
<polygon style="stroke:#000000; fill:none; stroke-width:0.9" points="10.62, 10.62 94.24799999999999, 10.62 94.24799999999999, 0 188.49599999999998, 0 188.49599999999998, 10.62 282.74399999999997, 10.62 282.74399999999997, 0 376.99199999999996, 0 376.99199999999996, 10.62 460.61999999999995, 10.62 460.61999999999995, 117.81000000000002 471.23999999999995, 117.81000000000002 471.23999999999995, 235.62000000000003 460.61999999999995, 235.62000000000003 460.61999999999995, 325.62 471.23999999999995, 325.62 471.23999999999995, 415.62 460.61999999999995, 415.62 460.61999999999995, 505.62 471.23999999999995, 505.62 471.23999999999995, 595.62 460.61999999999995, 595.62 460.61999999999995, 685.62 471.23999999999995, 685.62 471.23999999999995, 803.4300000000001 460.61999999999995, 803.4300000000001 460.61999999999995, 910.62 376.99199999999996, 910.62 376.99199999999996, 921.24 282.74399999999997, 921.24 282.74399999999997, 910.62 188.49599999999998, 910.62 188.49599999999998, 921.24 94.24799999999999, 921.24 94.24799999999999, 910.62 10.62, 910.62 10.62, 803.4300000000001 0, 803.4300000000001 0, 685.62 10.62, 685.62 10.62, 595.62 0, 595.62 0, 505.62 10.62, 505.62 10.62, 415.62 0, 415.62 0, 325.62 10.62, 325.62 10.62, 235.62000000000003 0, 235.62000000000003 0, 117.81000000000002 10.62, 117.81000000000002 "/> 
</g>
<!-- Bottom--> 
<g transform="translate(493.73999999999995, 583.74) " > 
<polygon style="stroke:#000000; fill:none; stroke-width:0.9" points="10.62, 10.62 94.24799999999999, 10.62 94.24799999999999, 0 188.49599999999998, 0 188.49599999999998, 10.62 282.74399999999997, 10.62 282.74399999999997, 0 376.99199999999996, 0 376.99199999999996, 10.62 460.61999999999995, 10.62 460.61999999999995, 117.81000000000002 471.23999999999995, 117.81000000000002 471.23999999999995, 235.62000000000003 460.61999999999995, 235.62000000000003 460.61999999999995, 325.62 471.23999999999995, 325.62 471.23999999999995, 415.62 460.61999999999995, 415.62 460.61999999999995, 505.62 471.23999999999995, 505.62 471.23999999999995, 595.62 460.61999999999995, 595.62 460.61999999999995, 685.62 471.23999999999995, 685.62 471.23999999999995, 803.4300000000001 460.61999999999995, 803.4300000000001 460.61999999999995, 910.62 376.99199999999996, 910.62 376.99199999999996, 921.24 282.74399999999997, 921.24 282.74399999999997, 910.62 188.49599999999998, 910.62 188.49599999999998, 921.24 94.24799999999999, 921.24 94.24799999999999, 910.62 10.62, 910.62 10.62, 803.4300000000001 0, 803.4300000000001 0, 685.62 10.62, 685.62 10.62, 595.62 0, 595.62 0, 505.62 10.62, 505.62 10.62, 415.62 0, 415.62 0, 325.62 10.62, 325.62 10.62, 235.62000000000003 0, 235.62000000000003 0, 117.81000000000002 10.62, 117.81000000000002 "/> 
</g></svg>