<?xml version="1.0" encoding="UTF-8" standalone="no"?>
<svg
   xmlns:dc="http://purl.org/dc/elements/1.1/"
   xmlns:cc="http://creativecommons.org/ns#"
   xmlns:rdf="http://www.w3.org/1999/02/22-rdf-syntax-ns#"
   xmlns:svg="http://www.w3.org/2000/svg"
   xmlns="http://www.w3.org/2000/svg"
   xmlns:sodipodi="http://sodipodi.sourceforge.net/DTD/sodipodi-0.dtd"
   xmlns:inkscape="http://www.inkscape.org/namespaces/inkscape"
   version="1.1"
   width="390.7mm"
   height="264.7mm"
   viewBox=" 0 0 1384.371217 937.9141569999999"
   id="svg2"
   inkscape:version="0.48.4 r9939"
   sodipodi:docname="Distributor Retailer.svg">
  <metadata
     id="metadata32">
    <rdf:RDF>
      <cc:Work
         rdf:about="">
        <dc:format>image/svg+xml</dc:format>
        <dc:type
           rdf:resource="http://purl.org/dc/dcmitype/StillImage" />
      </cc:Work>
    </rdf:RDF>
  </metadata>
  <defs
     id="defs30" />
  <sodipodi:namedview
     pagecolor="#ffffff"
     bordercolor="#666666"
     borderopacity="1"
     objecttolerance="10"
     gridtolerance="10"
     guidetolerance="10"
     inkscape:pageopacity="0"
     inkscape:pageshadow="2"
     inkscape:window-width="1217"
     inkscape:window-height="776"
     id="namedview28"
     showgrid="false"
     inkscape:zoom="0.3309846"
     inkscape:cx="59.381439"
     inkscape:cy="126.29301"
     inkscape:window-x="63"
     inkscape:window-y="24"
     inkscape:window-maximized="1"
     inkscape:current-layer="svg2" />
  <!-- Front-->
  <g
     transform="translate(22.500018499999996, 22.500018499999996) "
     id="g4">
    <polygon
       style="stroke:#000000; fill:none; stroke-width:0.90000074"
       points="0, 0 79.724475, 0 79.724475, 10.62993 159.44895, 10.62993 159.44895, 0 216.14191, 0 216.14191, 10.62993 295.86638500000004, 10.62993 295.86638500000004, 0 375.59086, 0 375.59086, 60.944931999999994 364.96093, 60.944931999999994 364.96093, 121.88986399999999 375.59086, 121.88986399999999 375.59086, 182.83479599999998 364.96093, 182.83479599999998 364.96093, 243.77972799999998 375.59086, 243.77972799999998 375.59086, 304.72466 295.86638500000004, 304.72466 295.86638500000004, 294.09472999999997 216.14191, 294.09472999999997 216.14191, 304.72466 159.44895, 304.72466 159.44895, 294.09472999999997 79.724475, 294.09472999999997 79.724475, 304.72466 0, 304.72466 0, 243.77972799999998 10.62993, 243.77972799999998 10.62993, 182.83479599999998 0, 182.83479599999998 0, 121.88986399999999 10.62993, 121.88986399999999 10.62993, 60.944931999999994 0, 60.944931999999994 "
       id="polygon6" />
  </g>
  <!-- Back-->
  <g
     transform="translate(398.0908785, 22.500018499999996) "
     id="g8">
    <polygon
       style="stroke:#000000; fill:none; stroke-width:0.90000074"
       points="0, 0 79.724475, 0 79.724475, 10.62993 159.44895, 10.62993 159.44895, 0 216.14191, 0 216.14191, 10.62993 295.86638500000004, 10.62993 295.86638500000004, 0 375.59086, 0 375.59086, 60.944931999999994 364.96093, 60.944931999999994 364.96093, 121.88986399999999 375.59086, 121.88986399999999 375.59086, 182.83479599999998 364.96093, 182.83479599999998 364.96093, 243.77972799999998 375.59086, 243.77972799999998 375.59086, 304.72466 295.86638500000004, 304.72466 295.86638500000004, 294.09472999999997 216.14191, 294.09472999999997 216.14191, 304.72466 159.44895, 304.72466 159.44895, 294.09472999999997 79.724475, 294.09472999999997 79.724475, 304.72466 0, 304.72466 0, 243.77972799999998 10.62993, 243.77972799999998 10.62993, 182.83479599999998 0, 182.83479599999998 0, 121.88986399999999 10.62993, 121.88986399999999 10.62993, 60.944931999999994 0, 60.944931999999994 "
       id="polygon10" />
  </g>
  <!-- Left-->
  <g
     transform="translate(773.6817384999999, 22.500018499999996) "
     id="g12">
    <polygon
       style="stroke:#000000; fill:none; stroke-width:0.90000074"
       points="10.62993, 0 76.181165, 0 76.181165, 10.62993 152.36233, 10.62993 152.36233, 0 209.05528999999999, 0 209.05528999999999, 10.62993 265.74825, 10.62993 265.74825, 0 322.44120999999996, 0 322.44120999999996, 10.62993 379.13417, 10.62993 379.13417, 0 435.82712999999995, 0 435.82712999999995, 10.62993 512.008295, 10.62993 512.008295, 0 577.55953, 0 577.55953, 60.944931999999994 588.1894599999999, 60.944931999999994 588.1894599999999, 121.88986399999999 577.55953, 121.88986399999999 577.55953, 182.83479599999998 588.1894599999999, 182.83479599999998 588.1894599999999, 243.77972799999998 577.55953, 243.77972799999998 577.55953, 304.72466 512.008295, 304.72466 512.008295, 294.09472999999997 435.82712999999995, 294.09472999999997 435.82712999999995, 304.72466 379.13417, 304.72466 379.13417, 294.09472999999997 322.44120999999996, 294.09472999999997 322.44120999999996, 304.72466 265.74825, 304.72466 265.74825, 294.09472999999997 209.05528999999999, 294.09472999999997 209.05528999999999, 304.72466 152.36233, 304.72466 152.36233, 294.09472999999997 76.181165, 294.09472999999997 76.181165, 304.72466 10.62993, 304.72466 10.62993, 243.77972799999998 0, 243.77972799999998 0, 182.83479599999998 10.62993, 182.83479599999998 10.62993, 121.88986399999999 0, 121.88986399999999 0, 60.944931999999994 10.62993, 60.944931999999994 "
       id="polygon14" />
  </g>
  <!-- Right-->
  <g
     transform="translate(773.6817384999999, 327.2246785) "
     id="g16">
    <polygon
       style="stroke:#000000; fill:none; stroke-width:0.90000074"
       points="10.62993, 0 76.181165, 0 76.181165, 10.62993 152.36233, 10.62993 152.36233, 0 209.05528999999999, 0 209.05528999999999, 10.62993 265.74825, 10.62993 265.74825, 0 322.44120999999996, 0 322.44120999999996, 10.62993 379.13417, 10.62993 379.13417, 0 435.82712999999995, 0 435.82712999999995, 10.62993 512.008295, 10.62993 512.008295, 0 577.55953, 0 577.55953, 60.944931999999994 588.1894599999999, 60.944931999999994 588.1894599999999, 121.88986399999999 577.55953, 121.88986399999999 577.55953, 182.83479599999998 588.1894599999999, 182.83479599999998 588.1894599999999, 243.77972799999998 577.55953, 243.77972799999998 577.55953, 304.72466 512.008295, 304.72466 512.008295, 294.09472999999997 435.82712999999995, 294.09472999999997 435.82712999999995, 304.72466 379.13417, 304.72466 379.13417, 294.09472999999997 322.44120999999996, 294.09472999999997 322.44120999999996, 304.72466 265.74825, 304.72466 265.74825, 294.09472999999997 209.05528999999999, 294.09472999999997 209.05528999999999, 304.72466 152.36233, 304.72466 152.36233, 294.09472999999997 76.181165, 294.09472999999997 76.181165, 304.72466 10.62993, 304.72466 10.62993, 243.77972799999998 0, 243.77972799999998 0, 182.83479599999998 10.62993, 182.83479599999998 10.62993, 121.88986399999999 0, 121.88986399999999 0, 60.944931999999994 10.62993, 60.944931999999994 "
       id="polygon18" />
  </g>
  <!-- Top-->
  <!-- Bottom-->
  <g
     transform="translate(398.0908785, 327.2246785) "
     id="g24">
    <polygon
       style="stroke:#000000; fill:none; stroke-width:0.90000074"
       points="10.62993, 10.62993 79.724475, 10.62993 79.724475, 0 159.44895, 0 159.44895, 10.62993 216.14191, 10.62993 216.14191, 0 295.86638500000004, 0 295.86638500000004, 10.62993 364.96093, 10.62993 364.96093, 76.181165 375.59086, 76.181165 375.59086, 152.36233 364.96093, 152.36233 364.96093, 209.05528999999999 375.59086, 209.05528999999999 375.59086, 265.74825 364.96093, 265.74825 364.96093, 322.44120999999996 375.59086, 322.44120999999996 375.59086, 379.13417 364.96093, 379.13417 364.96093, 435.82712999999995 375.59086, 435.82712999999995 375.59086, 512.008295 364.96093, 512.008295 364.96093, 577.55953 295.86638500000004, 577.55953 295.86638500000004, 588.1894599999999 216.14191, 588.1894599999999 216.14191, 577.55953 159.44895, 577.55953 159.44895, 588.1894599999999 79.724475, 588.1894599999999 79.724475, 577.55953 10.62993, 577.55953 10.62993, 512.008295 0, 512.008295 0, 435.82712999999995 10.62993, 435.82712999999995 10.62993, 379.13417 0, 379.13417 0, 322.44120999999996 10.62993, 322.44120999999996 10.62993, 265.74825 0, 265.74825 0, 209.05528999999999 10.62993, 209.05528999999999 10.62993, 152.36233 0, 152.36233 0, 76.181165 10.62993, 76.181165 "
       id="polygon26" />
  </g>
  <path
     style="fill:#000000;fill-opacity:1;stroke:#0000ff;stroke-width:0.1;stroke-linejoin:miter;stroke-miterlimit:4;stroke-opacity:1;stroke-dasharray:none"
     d="m -409.06754,369.21342 0,-37.65358 39.52292,0 39.52291,0 0,4.80684 0,4.80684 -34.44903,0 -34.44902,0 0,32.84674 0,32.84675 -5.07389,0 -5.07389,0 0,-37.65359 z"
     id="path3011"
     inkscape:connector-curvature="0"
     transform="translate(0,-2.0136775e-5)" />
  <path
     style="fill:#000000;fill-opacity:1;stroke:#0000ff;stroke-width:0.1;stroke-linejoin:miter;stroke-miterlimit:4;stroke-opacity:1;stroke-dasharray:none"
     d="m -409.06754,512.08341 0,-27.77286 5.07389,0 5.07389,0 0,27.77286 0,27.77286 -5.07389,0 -5.07389,0 0,-27.77286 z"
     id="path3013"
     inkscape:connector-curvature="0"
     transform="translate(0,-2.0136775e-5)" />
  <path
     style="fill:#000000;fill-opacity:1;stroke:#0000ff;stroke-width:0.1;stroke-linejoin:miter;stroke-miterlimit:4;stroke-opacity:1;stroke-dasharray:none"
     d="m -248.83951,336.36668 0,-4.80684 27.50581,0 27.50581,0 0,4.80684 0,4.80684 -27.50581,0 -27.50581,0 0,-4.80684 z"
     id="path3015"
     inkscape:connector-curvature="0"
     transform="translate(0,-2.0136775e-5)" />
  <path
     style="fill:#000000;fill-opacity:1;stroke:#0000ff;stroke-width:0.1;stroke-linejoin:miter;stroke-miterlimit:4;stroke-opacity:1;stroke-dasharray:none"
     d="m -43.21355,374.02026 0,-32.84674 -34.716072,0 -34.716068,0 0,-4.80684 0,-4.80684 39.522909,0 39.522912,0 0,37.65358 0,37.65359 -4.806841,0 -4.80684,0 0,-32.84675 z"
     id="path3017"
     inkscape:connector-curvature="0"
     transform="translate(0,-2.0136775e-5)" />
  <path
     style="fill:#000000;fill-opacity:1;stroke:#0000ff;stroke-width:0.1;stroke-linejoin:miter;stroke-miterlimit:4;stroke-opacity:1;stroke-dasharray:none"
     d="m -43.21355,512.08341 0,-27.77286 4.80684,0 4.806841,0 0,27.77286 0,27.77286 -4.806841,0 -4.80684,0 0,-27.77286 z"
     id="path3019"
     inkscape:connector-curvature="0"
     transform="translate(0,-2.0136775e-5)" />
  <path
     style="fill:#000000;fill-opacity:1;stroke:#0000ff;stroke-width:0.1;stroke-linejoin:miter;stroke-miterlimit:4;stroke-opacity:1;stroke-dasharray:none"
     d="m -409.27073,625.58709 0,-27.50581 5.07389,0 5.07389,0 0,27.50581 0,27.50581 -5.07389,0 -5.07389,0 0,-27.50581 z"
     id="path3021"
     inkscape:connector-curvature="0"
     transform="translate(0,-2.0136775e-5)" />
  <path
     style="fill:#000000;fill-opacity:1;stroke:#0000ff;stroke-width:0.1;stroke-linejoin:miter;stroke-miterlimit:4;stroke-opacity:1;stroke-dasharray:none"
     d="m -43.637836,625.57299 0,-27.77286 5.073887,0 5.073888,0 0,27.77286 0,27.77285 -5.073888,0 -5.073887,0 0,-27.77285 z"
     id="path3023"
     inkscape:connector-curvature="0"
     transform="translate(0,-2.0136775e-5)" />
  <path
     style="fill:#000000;fill-opacity:1;stroke:#0000ff;stroke-width:0.09999999;stroke-linejoin:miter;stroke-miterlimit:4;stroke-opacity:1;stroke-dasharray:none"
     d="m -43.414549,738.98693 0,-27.75809 5.098425,0 5.098424,0 0,27.75809 0,27.75809 -5.098424,0 -5.098425,0 0,-27.75809 z"
     id="path3025"
     inkscape:connector-curvature="0"
     transform="translate(0,-2.0136775e-5)" />
  <path
     style="fill:#000000;fill-opacity:1;stroke:#0000ff;stroke-width:0.09999999;stroke-linejoin:miter;stroke-miterlimit:4;stroke-opacity:1;stroke-dasharray:none"
     d="m -112.53327,914.88656 0,-5.09842 34.55599,0 34.555988,0 0,-32.85651 0,-32.85652 5.098424,0 5.098425,0 0,37.95494 0,37.95494 -39.654413,0 -39.654414,0 0,-5.09843 z"
     id="path3027"
     inkscape:connector-curvature="0"
     transform="translate(0,-2.0136775e-5)" />
  <path
     style="fill:#000000;fill-opacity:1;stroke:#0000ff;stroke-width:0.09999999;stroke-linejoin:miter;stroke-miterlimit:4;stroke-opacity:1;stroke-dasharray:none"
     d="m -249.02055,914.81423 0,-5.09842 27.75809,0 27.75809,0 0,5.09842 0,5.09843 -27.75809,0 -27.75809,0 0,-5.09843 z"
     id="path3029"
     inkscape:connector-curvature="0"
     transform="translate(0,-2.0136775e-5)" />
  <path
     style="fill:#000000;fill-opacity:1;stroke:#0000ff;stroke-width:0.1;stroke-linejoin:miter;stroke-miterlimit:4;stroke-opacity:1;stroke-dasharray:none"
     d="m -409.11484,881.97303 0,-37.38654 4.80684,0 4.80684,0 0,32.5797 0,32.5797 34.71607,0 34.71607,0 0,4.80684 0,4.80684 -39.52291,0 -39.52291,0 0,-37.38654 z"
     id="path3031"
     inkscape:connector-curvature="0"
     transform="translate(0,-2.0136775e-5)" />
  <path
     style="fill:#000000;fill-opacity:1;stroke:#0000ff;stroke-width:0.1;stroke-linejoin:miter;stroke-miterlimit:4;stroke-opacity:1;stroke-dasharray:none"
     d="m -409.11484,739.37009 0,-27.23877 4.80684,0 4.80684,0 0,27.23877 0,27.23876 -4.80684,0 -4.80684,0 0,-27.23876 z"
     id="path3033"
     inkscape:connector-curvature="0"
     transform="translate(0,-2.0136775e-5)" />
</svg>
