<?xml version="1.0" encoding="UTF-8" standalone="no"?>
<svg
   xmlns:dc="http://purl.org/dc/elements/1.1/"
   xmlns:cc="http://creativecommons.org/ns#"
   xmlns:rdf="http://www.w3.org/1999/02/22-rdf-syntax-ns#"
   xmlns:svg="http://www.w3.org/2000/svg"
   xmlns="http://www.w3.org/2000/svg"
   xmlns:sodipodi="http://sodipodi.sourceforge.net/DTD/sodipodi-0.dtd"
   xmlns:inkscape="http://www.inkscape.org/namespaces/inkscape"
   version="1.1"
   width="25.208in"
   height="20.972in"
   viewBox=" 0 0 2268.72 1887.48"
   id="svg2"
   inkscape:version="0.48.4 r9939"
   sodipodi:docname="Factory.svg">
  <metadata
     id="metadata32">
    <rdf:RDF>
      <cc:Work
         rdf:about="">
        <dc:format>image/svg+xml</dc:format>
        <dc:type
           rdf:resource="http://purl.org/dc/dcmitype/StillImage" />
      </cc:Work>
    </rdf:RDF>
  </metadata>
  <defs
     id="defs30" />
  <sodipodi:namedview
     pagecolor="#ffffff"
     bordercolor="#666666"
     borderopacity="1"
     objecttolerance="10"
     gridtolerance="10"
     guidetolerance="10"
     inkscape:pageopacity="0"
     inkscape:pageshadow="2"
     inkscape:window-width="1217"
     inkscape:window-height="776"
     id="namedview28"
     showgrid="false"
     inkscape:zoom="0.14786208"
     inkscape:cx="-48.268065"
     inkscape:cy="81.742332"
     inkscape:window-x="63"
     inkscape:window-y="24"
     inkscape:window-maximized="1"
     inkscape:current-layer="svg2" />
  <!-- Front-->
  <g
     transform="matrix(0,-1,1,0,3757.7518,2320.0105)"
     id="g4">
    <polygon
       style="fill:none;stroke:#000000;stroke-width:0.89999998"
       points="94.248,10.62 188.496,10.62 188.496,0 282.744,0 282.744,10.62 376.992,10.62 376.992,0 471.24,0 471.24,117.81 460.62,117.81 460.62,235.62 471.24,235.62 471.24,325.62 460.62,325.62 460.62,443.43 471.24,443.43 471.24,561.24 376.992,561.24 376.992,550.62 282.744,550.62 282.744,561.24 188.496,561.24 188.496,550.62 94.248,550.62 94.248,561.24 0,561.24 0,443.43 10.62,443.43 10.62,325.62 0,325.62 0,235.62 10.62,235.62 10.62,117.81 0,117.81 0,0 94.248,0 "
       id="polygon6" />
  </g>
  <!-- Back-->
  <g
     transform="matrix(0,-1,1,0,3714.4026,330.92511)"
     id="g8">
    <polygon
       style="fill:none;stroke:#000000;stroke-width:0.89999998"
       points="94.248,10.62 188.496,10.62 188.496,0 282.744,0 282.744,10.62 376.992,10.62 376.992,0 471.24,0 471.24,117.81 460.62,117.81 460.62,235.62 471.24,235.62 471.24,325.62 460.62,325.62 460.62,443.43 471.24,443.43 471.24,561.24 376.992,561.24 376.992,550.62 282.744,550.62 282.744,561.24 188.496,561.24 188.496,550.62 94.248,550.62 94.248,561.24 0,561.24 0,443.43 10.62,443.43 10.62,325.62 0,325.62 0,235.62 10.62,235.62 10.62,117.81 0,117.81 0,0 94.248,0 "
       id="polygon10" />
  </g>
  <!-- Left-->
  <g
     transform="matrix(0,-1,1,0,4748.9778,1715.6238)"
     id="g12">
    <polygon
       style="fill:none;stroke:#000000;stroke-width:0.89999998"
       points="235.62,10.62 235.62,0 325.62,0 325.62,10.62 415.62,10.62 415.62,0 505.62,0 505.62,10.62 595.62,10.62 595.62,0 685.62,0 685.62,10.62 775.62,10.62 775.62,0 865.62,0 865.62,10.62 955.62,10.62 955.62,0 1045.62,0 1045.62,10.62 1163.43,10.62 1163.43,0 1270.62,0 1270.62,117.81 1281.24,117.81 1281.24,235.62 1270.62,235.62 1270.62,325.62 1281.24,325.62 1281.24,443.43 1270.62,443.43 1270.62,561.24 1163.43,561.24 1163.43,550.62 1045.62,550.62 1045.62,561.24 955.62,561.24 955.62,550.62 865.62,550.62 865.62,561.24 775.62,561.24 775.62,550.62 685.62,550.62 685.62,561.24 595.62,561.24 595.62,550.62 505.62,550.62 505.62,561.24 415.62,561.24 415.62,550.62 325.62,550.62 325.62,561.24 235.62,561.24 235.62,550.62 117.81,550.62 117.81,561.24 10.62,561.24 10.62,443.43 0,443.43 0,325.62 10.62,325.62 10.62,235.62 0,235.62 0,117.81 10.62,117.81 10.62,0 117.81,0 117.81,10.62 "
       id="polygon14" />
  </g>
  <!-- Right-->
  <g
     transform="matrix(0,-1,1,0,2710.4126,1712.7949)"
     id="g16">
    <polygon
       style="fill:none;stroke:#000000;stroke-width:0.89999998"
       points="235.62,10.62 235.62,0 325.62,0 325.62,10.62 415.62,10.62 415.62,0 505.62,0 505.62,10.62 595.62,10.62 595.62,0 685.62,0 685.62,10.62 775.62,10.62 775.62,0 865.62,0 865.62,10.62 955.62,10.62 955.62,0 1045.62,0 1045.62,10.62 1163.43,10.62 1163.43,0 1270.62,0 1270.62,117.81 1281.24,117.81 1281.24,235.62 1270.62,235.62 1270.62,325.62 1281.24,325.62 1281.24,443.43 1270.62,443.43 1270.62,561.24 1163.43,561.24 1163.43,550.62 1045.62,550.62 1045.62,561.24 955.62,561.24 955.62,550.62 865.62,550.62 865.62,561.24 775.62,561.24 775.62,550.62 685.62,550.62 685.62,561.24 595.62,561.24 595.62,550.62 505.62,550.62 505.62,561.24 415.62,561.24 415.62,550.62 325.62,550.62 325.62,561.24 235.62,561.24 235.62,550.62 117.81,550.62 117.81,561.24 10.62,561.24 10.62,443.43 0,443.43 0,325.62 10.62,325.62 10.62,235.62 0,235.62 0,117.81 10.62,117.81 10.62,0 117.81,0 117.81,10.62 "
       id="polygon18" />
  </g>
  <!-- Top-->
  <!-- Bottom-->
  <g
     transform="translate(3769.2985,415.5089)"
     id="g24">
    <polygon
       style="fill:none;stroke:#000000;stroke-width:0.89999998"
       points="94.248,10.62 94.248,0 188.496,0 188.496,10.62 282.744,10.62 282.744,0 376.992,0 376.992,10.62 460.62,10.62 460.62,117.81 471.24,117.81 471.24,235.62 460.62,235.62 460.62,325.62 471.24,325.62 471.24,415.62 460.62,415.62 460.62,505.62 471.24,505.62 471.24,595.62 460.62,595.62 460.62,685.62 471.24,685.62 471.24,775.62 460.62,775.62 460.62,865.62 471.24,865.62 471.24,955.62 460.62,955.62 460.62,1045.62 471.24,1045.62 471.24,1163.43 460.62,1163.43 460.62,1270.62 376.992,1270.62 376.992,1281.24 282.744,1281.24 282.744,1270.62 188.496,1270.62 188.496,1281.24 94.248,1281.24 94.248,1270.62 10.62,1270.62 10.62,1163.43 0,1163.43 0,1045.62 10.62,1045.62 10.62,955.62 0,955.62 0,865.62 10.62,865.62 10.62,775.62 0,775.62 0,685.62 10.62,685.62 10.62,595.62 0,595.62 0,505.62 10.62,505.62 10.62,415.62 0,415.62 0,325.62 10.62,325.62 10.62,235.62 0,235.62 0,117.81 10.62,117.81 10.62,10.62 "
       id="polygon26" />
  </g>
  <g
     id="g3947">
    <g
       id="g3913">
      <path
         style="fill:none;stroke:#000000;stroke-width:0.1;stroke-linejoin:miter;stroke-miterlimit:4;stroke-opacity:1;stroke-dasharray:none"
         d="m -1257.2674,722.1619 0,-58.75719 46.6965,0 46.6965,0 0,4.94797 0,4.94798 -41.7486,0 -41.7485,0 0,53.80921 0,53.80921 -4.948,0 -4.9479,0 0,-58.75718 z"
         id="path3025"
         inkscape:connector-curvature="0" />
      <path
         style="fill:none;stroke:#000000;stroke-width:0.1;stroke-linejoin:miter;stroke-miterlimit:4;stroke-opacity:1;stroke-dasharray:none"
         d="m -1257.2674,944.51146 0,-44.22251 4.9479,0 4.948,0 0,44.22251 0,44.22251 -4.948,0 -4.9479,0 0,-44.22251 z"
         id="path3029"
         inkscape:connector-curvature="0" />
      <path
         style="fill:none;stroke:#000000;stroke-width:0.1;stroke-linejoin:miter;stroke-miterlimit:4;stroke-opacity:1;stroke-dasharray:none"
         d="m -1068.0074,668.35268 0,-4.94797 46.3872,0 46.38726,0 0,4.94797 0,4.94798 -46.38726,0 -46.3872,0 0,-4.94798 z"
         id="path3031"
         inkscape:connector-curvature="0" />
      <path
         style="fill:none;stroke:#000000;stroke-width:0.1;stroke-linejoin:miter;stroke-miterlimit:4;stroke-opacity:1;stroke-dasharray:none"
         d="m -1256.5002,1124.0384 0,-43.9133 4.3294,0 4.3295,0 0,43.9133 0,43.9132 -4.3295,0 -4.3294,0 0,-43.9132 z"
         id="path3033"
         inkscape:connector-curvature="0" />
      <path
         style="fill:none;stroke:#000000;stroke-width:0.1;stroke-linejoin:miter;stroke-miterlimit:4;stroke-opacity:1;stroke-dasharray:none"
         d="m -795.10169,1124.0384 0,-43.9133 4.32947,0 4.32948,0 0,43.9133 0,43.9132 -4.32948,0 -4.32947,0 0,-43.9132 z"
         id="path3035"
         inkscape:connector-curvature="0" />
      <path
         style="fill:none;stroke:#000000;stroke-width:0.1;stroke-linejoin:miter;stroke-miterlimit:4;stroke-opacity:1;stroke-dasharray:none"
         d="m -795.10169,944.67432 0,-43.91327 4.32947,0 4.32948,0 0,43.91327 0,43.91326 -4.32948,0 -4.32947,0 0,-43.91326 z"
         id="path3037"
         inkscape:connector-curvature="0" />
      <path
         style="fill:none;stroke:#000000;stroke-width:0.1;stroke-linejoin:miter;stroke-miterlimit:4;stroke-opacity:1;stroke-dasharray:none"
         d="m -795.10169,726.96348 0,-53.80921 -42.05778,0 -42.05778,0 0,-4.32948 0,-4.32947 46.38726,0 46.38725,0 0,58.13868 0,58.13869 -4.32948,0 -4.32947,0 0,-53.80921 z"
         id="path3039"
         inkscape:connector-curvature="0" />
      <path
         style="fill:none;stroke:#000000;stroke-width:0.1;stroke-linejoin:miter;stroke-miterlimit:4;stroke-opacity:1;stroke-dasharray:none"
         d="m -1257.1328,1303.961 0,-43.9133 4.948,0 4.948,0 0,43.9133 0,43.9132 -4.948,0 -4.948,0 0,-43.9132 z"
         id="path3041"
         inkscape:connector-curvature="0" />
      <path
         style="fill:none;stroke:#000000;stroke-width:0.1;stroke-linejoin:miter;stroke-miterlimit:4;stroke-opacity:1;stroke-dasharray:none"
         d="m -795.73424,1303.961 0,-43.9133 4.94797,0 4.94798,0 0,43.9133 0,43.9132 -4.94798,0 -4.94797,0 0,-43.9132 z"
         id="path3043"
         inkscape:connector-curvature="0" />
      <path
         style="fill:none;stroke:#000000;stroke-width:0.1;stroke-linejoin:miter;stroke-miterlimit:4;stroke-opacity:1;stroke-dasharray:none"
         d="m -1257.1328,1484.562 0,-43.9133 4.948,0 4.948,0 0,43.9133 0,43.9133 -4.948,0 -4.948,0 0,-43.9133 z"
         id="path3045"
         inkscape:connector-curvature="0" />
      <path
         style="fill:none;stroke:#000000;stroke-width:0.1;stroke-linejoin:miter;stroke-miterlimit:4;stroke-opacity:1;stroke-dasharray:none"
         d="m -795.73424,1484.562 0,-43.9133 4.94797,0 4.94798,0 0,43.9133 0,43.9133 -4.94798,0 -4.94797,0 0,-43.9133 z"
         id="path3047"
         inkscape:connector-curvature="0" />
      <path
         style="fill:none;stroke:#000000;stroke-width:0.1;stroke-linejoin:miter;stroke-miterlimit:4;stroke-opacity:1;stroke-dasharray:none"
         d="m -1257.3331,1664.3821 0,-43.9133 4.948,0 4.948,0 0,43.9133 0,43.9132 -4.948,0 -4.948,0 0,-43.9132 z"
         id="path3049"
         inkscape:connector-curvature="0" />
      <path
         style="fill:none;stroke:#000000;stroke-width:0.1;stroke-linejoin:miter;stroke-miterlimit:4;stroke-opacity:1;stroke-dasharray:none"
         d="m -795.93455,1664.3821 0,-43.9133 4.94797,0 4.94797,0 0,43.9133 0,43.9132 -4.94797,0 -4.94797,0 0,-43.9132 z"
         id="path3051"
         inkscape:connector-curvature="0" />
      <path
         style="fill:none;stroke:#000000;stroke-width:0.1;stroke-linejoin:miter;stroke-miterlimit:4;stroke-opacity:1;stroke-dasharray:none"
         d="m -1257.4649,1886.3465 0,-58.7572 4.948,0 4.948,0 0,53.8092 0,53.8092 42.0577,0 42.0578,0 0,4.948 0,4.948 -47.0057,0 -47.0058,0 0,-58.7572 z"
         id="path3053"
         inkscape:connector-curvature="0" />
      <path
         style="fill:none;stroke:#000000;stroke-width:0.1;stroke-linejoin:miter;stroke-miterlimit:4;stroke-opacity:1;stroke-dasharray:none"
         d="m -879.56341,1940.1557 0,-4.948 41.74853,0 41.74853,0 0,-53.8092 0,-53.8092 4.94797,0 4.94798,0 0,58.7572 0,58.7572 -46.6965,0 -46.69651,0 0,-4.948 z"
         id="path3055"
         inkscape:connector-curvature="0" />
      <path
         style="fill:none;stroke:#000000;stroke-width:0.1;stroke-linejoin:miter;stroke-miterlimit:4;stroke-opacity:1;stroke-dasharray:none"
         d="m -1068.2049,1940.1557 0,-4.948 46.3873,0 46.38721,0 0,4.948 0,4.948 -46.38721,0 -46.3873,0 0,-4.948 z"
         id="path3057"
         inkscape:connector-curvature="0" />
    </g>
  </g>
</svg>
