<svg xmlns="http://www.w3.org/2000/svg" version="1.1" width="130.7mm" height="104.7mm" viewBox = " 0 0 463.11061699999993 370.984557" >
<!-- Front--> 
<g transform="translate(22.5000185, 22.5000185) " > 
<polygon style="stroke:#000000; fill:none; stroke-width:0.90000074" points="0, 0 31.0039625, 0 31.0039625, 10.62993 62.007925, 10.62993 62.007925, 0 83.267785, 0 83.267785, 10.62993 114.2717475, 10.62993 114.2717475, 0 145.27571, 0 145.27571, 35.433099999999996 134.64578, 35.433099999999996 134.64578, 70.86619999999999 145.27571, 70.86619999999999 145.27571, 92.12606 134.64578, 92.12606 134.64578, 127.55915999999999 145.27571, 127.55915999999999 145.27571, 162.99226 114.2717475, 162.99226 114.2717475, 152.36233 83.267785, 152.36233 83.267785, 162.99226 62.007925, 162.99226 62.007925, 152.36233 31.0039625, 152.36233 31.0039625, 162.99226 0, 162.99226 0, 127.55915999999999 10.62993, 127.55915999999999 10.62993, 92.12606 0, 92.12606 0, 70.86619999999999 10.62993, 70.86619999999999 10.62993, 35.433099999999996 0, 35.433099999999996 "/> 
</g>
<!-- Back--> 
<g transform="translate(167.7757285, 22.5000185) " > 
<polygon style="stroke:#000000; fill:none; stroke-width:0.90000074" points="0, 0 31.0039625, 0 31.0039625, 10.62993 62.007925, 10.62993 62.007925, 0 83.267785, 0 83.267785, 10.62993 114.2717475, 10.62993 114.2717475, 0 145.27571, 0 145.27571, 35.433099999999996 134.64578, 35.433099999999996 134.64578, 70.86619999999999 145.27571, 70.86619999999999 145.27571, 92.12606 134.64578, 92.12606 134.64578, 127.55915999999999 145.27571, 127.55915999999999 145.27571, 162.99226 114.2717475, 162.99226 114.2717475, 152.36233 83.267785, 152.36233 83.267785, 162.99226 62.007925, 162.99226 62.007925, 152.36233 31.0039625, 152.36233 31.0039625, 162.99226 0, 162.99226 0, 127.55915999999999 10.62993, 127.55915999999999 10.62993, 92.12606 0, 92.12606 0, 70.86619999999999 10.62993, 70.86619999999999 10.62993, 35.433099999999996 0, 35.433099999999996 "/> 
</g>
<!-- Left--> 
<g transform="translate(313.05143849999996, 22.5000185) " > 
<polygon style="stroke:#000000; fill:none; stroke-width:0.90000074" points="10.62993, 0 26.574825, 0 26.574825, 10.62993 53.14965, 10.62993 53.14965, 0 74.40951, 0 74.40951, 10.62993 100.984335, 10.62993 100.984335, 0 116.92922999999999, 0 116.92922999999999, 35.433099999999996 127.55915999999999, 35.433099999999996 127.55915999999999, 70.86619999999999 116.92922999999999, 70.86619999999999 116.92922999999999, 92.12606 127.55915999999999, 92.12606 127.55915999999999, 127.55915999999999 116.92922999999999, 127.55915999999999 116.92923, 162.99226 100.984335, 162.99226 100.984335, 152.36233 74.40951, 152.36233 74.40951, 162.99226 53.14965, 162.99226 53.14965, 152.36233 26.574825, 152.36233 26.574825, 162.99226 10.62993, 162.99226 10.62993, 127.55915999999999 0, 127.55915999999999 0, 92.12606 10.62993, 92.12606 10.62993, 70.86619999999999 0, 70.86619999999999 0, 35.433099999999996 10.62993, 35.433099999999996 "/> 
</g>
<!-- Right--> 
<g transform="translate(313.05143849999996, 185.4922785) " > 
<polygon style="stroke:#000000; fill:none; stroke-width:0.90000074" points="10.62993, 0 26.574825, 0 26.574825, 10.62993 53.14965, 10.62993 53.14965, 0 74.40951, 0 74.40951, 10.62993 100.984335, 10.62993 100.984335, 0 116.92922999999999, 0 116.92922999999999, 35.433099999999996 127.55915999999999, 35.433099999999996 127.55915999999999, 70.86619999999999 116.92922999999999, 70.86619999999999 116.92922999999999, 92.12606 127.55915999999999, 92.12606 127.55915999999999, 127.55915999999999 116.92922999999999, 127.55915999999999 116.92923, 162.99226 100.984335, 162.99226 100.984335, 152.36233 74.40951, 152.36233 74.40951, 162.99226 53.14965, 162.99226 53.14965, 152.36233 26.574825, 152.36233 26.574825, 162.99226 10.62993, 162.99226 10.62993, 127.55915999999999 0, 127.55915999999999 0, 92.12606 10.62993, 92.12606 10.62993, 70.86619999999999 0, 70.86619999999999 0, 35.433099999999996 10.62993, 35.433099999999996 "/> 
</g>
<!-- Top--> 
<g transform="translate(22.5000185, 185.4922785) " > 
<polygon style="stroke:#000000; fill:none; stroke-width:0.90000074" points="10.62993, 10.62993 31.0039625, 10.62993 31.0039625, 0 62.007925, 0 62.007925, 10.62993 83.267785, 10.62993 83.267785, 0 114.2717475, 0 114.2717475, 10.62993 134.64578, 10.62993 134.64578, 26.574825 145.27571, 26.574825 145.27571, 53.14965 134.64578, 53.14965 134.64578, 74.40951 145.27571, 74.40951 145.27571, 100.984335 134.64578, 100.984335 134.64578, 116.92922999999999 114.2717475, 116.92922999999999 114.2717475, 127.55915999999999 83.267785, 127.55915999999999 83.267785, 116.92922999999999 62.007925, 116.92922999999999 62.007925, 127.55915999999999 31.0039625, 127.55915999999999 31.0039625, 116.92922999999999 10.62993, 116.92923 10.62993, 100.984335 0, 100.984335 0, 74.40951 10.62993, 74.40951 10.62993, 53.14965 0, 53.14965 0, 26.574825 10.62993, 26.574825 "/> 
</g>
<!-- Bottom--> 
<g transform="translate(167.7757285, 185.4922785) " > 
<polygon style="stroke:#000000; fill:none; stroke-width:0.90000074" points="10.62993, 10.62993 31.0039625, 10.62993 31.0039625, 0 62.007925, 0 62.007925, 10.62993 83.267785, 10.62993 83.267785, 0 114.2717475, 0 114.2717475, 10.62993 134.64578, 10.62993 134.64578, 26.574825 145.27571, 26.574825 145.27571, 53.14965 134.64578, 53.14965 134.64578, 74.40951 145.27571, 74.40951 145.27571, 100.984335 134.64578, 100.984335 134.64578, 116.92922999999999 114.2717475, 116.92922999999999 114.2717475, 127.55915999999999 83.267785, 127.55915999999999 83.267785, 116.92922999999999 62.007925, 116.92922999999999 62.007925, 127.55915999999999 31.0039625, 127.55915999999999 31.0039625, 116.92922999999999 10.62993, 116.92923 10.62993, 100.984335 0, 100.984335 0, 74.40951 10.62993, 74.40951 10.62993, 53.14965 0, 53.14965 0, 26.574825 10.62993, 26.574825 "/> 
</g></svg>