<svg xmlns="http://www.w3.org/2000/svg" version="1.1" width="230.7mm" height="169.7mm" viewBox = " 0 0 817.441617 601.2997069999999" >
<!-- Front--> 
<g transform="translate(22.5000185, 22.5000185) " > 
<polygon style="stroke:#000000; fill:none; stroke-width:0.90000074" points="0, 0 35.433099999999996, 0 35.433099999999996, 10.62993 70.86619999999999, 10.62993 70.86619999999999, 0 92.12606, 0 92.12606, 10.62993 127.55915999999999, 10.62993 127.55915999999999, 0 162.99226, 0 162.99226, 21.968522 152.36233, 21.968522 152.36233, 43.937044 162.99226, 43.937044 162.99226, 65.905566 152.36233, 65.905566 152.36233, 87.874088 162.99226, 87.874088 162.99226, 109.84261 127.55915999999999, 109.84261 127.55915999999999, 99.21267999999999 92.12606, 99.21267999999999 92.12606, 109.84261 70.86619999999999, 109.84261 70.86619999999999, 99.21267999999999 35.433099999999996, 99.21267999999999 35.433099999999996, 109.84261 0, 109.84261000000001 0, 87.874088 10.62993, 87.874088 10.62993, 65.905566 0, 65.905566 0, 43.937044 10.62993, 43.937044 10.62993, 21.968522 0, 21.968522 "/> 
</g>
<!-- Back--> 
<g transform="translate(185.4922785, 22.5000185) " > 
<polygon style="stroke:#000000; fill:none; stroke-width:0.90000074" points="0, 0 35.433099999999996, 0 35.433099999999996, 10.62993 70.86619999999999, 10.62993 70.86619999999999, 0 92.12606, 0 92.12606, 10.62993 127.55915999999999, 10.62993 127.55915999999999, 0 162.99226, 0 162.99226, 21.968522 152.36233, 21.968522 152.36233, 43.937044 162.99226, 43.937044 162.99226, 65.905566 152.36233, 65.905566 152.36233, 87.874088 162.99226, 87.874088 162.99226, 109.84261 127.55915999999999, 109.84261 127.55915999999999, 99.21267999999999 92.12606, 99.21267999999999 92.12606, 109.84261 70.86619999999999, 109.84261 70.86619999999999, 99.21267999999999 35.433099999999996, 99.21267999999999 35.433099999999996, 109.84261 0, 109.84261000000001 0, 87.874088 10.62993, 87.874088 10.62993, 65.905566 0, 65.905566 0, 43.937044 10.62993, 43.937044 10.62993, 21.968522 0, 21.968522 "/> 
</g>
<!-- Left--> 
<g transform="translate(348.4845385, 22.5000185) " > 
<polygon style="stroke:#000000; fill:none; stroke-width:0.90000074" points="10.62993, 0 31.889789999999998, 0 31.889789999999998, 10.62993 63.779579999999996, 10.62993 63.779579999999996, 0 85.03944, 0 85.03944, 10.62993 106.29929999999999, 10.62993 106.29929999999999, 0 127.55915999999999, 0 127.55915999999999, 10.62993 148.81902, 10.62993 148.81902, 0 170.07888, 0 170.07888, 10.62993 191.33873999999997, 10.62993 191.33873999999997, 0 212.59859999999998, 0 212.59859999999998, 10.62993 233.85845999999998, 10.62993 233.85845999999998, 0 255.11831999999998, 0 255.11831999999998, 10.62993 276.37818, 10.62993 276.37818, 0 297.63804, 0 297.63804, 10.62993 318.8979, 10.62993 318.8979, 0 340.15776, 0 340.15776, 10.62993 361.41762, 10.62993 361.41762, 0 382.67748, 0 382.67748, 10.62993 414.56727, 10.62993 414.56727, 0 435.82713, 0 435.82713, 21.968522 446.45706, 21.968522 446.45706, 43.937044 435.82713, 43.937044 435.82713, 65.905566 446.45706, 65.905566 446.45706, 87.874088 435.82713, 87.874088 435.82712999999995, 109.84261 414.56727, 109.84261 414.56727, 99.21267999999999 382.67748, 99.21267999999999 382.67748, 109.84261 361.41762, 109.84261 361.41762, 99.21267999999999 340.15776, 99.21267999999999 340.15776, 109.84261 318.8979, 109.84261 318.8979, 99.21267999999999 297.63804, 99.21267999999999 297.63804, 109.84261 276.37818, 109.84261 276.37818, 99.21267999999999 255.11831999999998, 99.21267999999999 255.11831999999998, 109.84261 233.85845999999998, 109.84261 233.85845999999998, 99.21267999999999 212.59859999999998, 99.21267999999999 212.59859999999998, 109.84261 191.33873999999997, 109.84261 191.33873999999997, 99.21267999999999 170.07888, 99.21267999999999 170.07888, 109.84261 148.81902, 109.84261 148.81902, 99.21267999999999 127.55915999999999, 99.21267999999999 127.55915999999999, 109.84261 106.29929999999999, 109.84261 106.29929999999999, 99.21267999999999 85.03944, 99.21267999999999 85.03944, 109.84261 63.779579999999996, 109.84261 63.779579999999996, 99.21267999999999 31.889789999999998, 99.21267999999999 31.889789999999998, 109.84261 10.62993, 109.84261000000001 10.62993, 87.874088 0, 87.874088 0, 65.905566 10.62993, 65.905566 10.62993, 43.937044 0, 43.937044 0, 21.968522 10.62993, 21.968522 "/> 
</g>
<!-- Right--> 
<g transform="translate(348.4845385, 132.3426285) " > 
<polygon style="stroke:#000000; fill:none; stroke-width:0.90000074" points="10.62993, 0 31.889789999999998, 0 31.889789999999998, 10.62993 63.779579999999996, 10.62993 63.779579999999996, 0 85.03944, 0 85.03944, 10.62993 106.29929999999999, 10.62993 106.29929999999999, 0 127.55915999999999, 0 127.55915999999999, 10.62993 148.81902, 10.62993 148.81902, 0 170.07888, 0 170.07888, 10.62993 191.33873999999997, 10.62993 191.33873999999997, 0 212.59859999999998, 0 212.59859999999998, 10.62993 233.85845999999998, 10.62993 233.85845999999998, 0 255.11831999999998, 0 255.11831999999998, 10.62993 276.37818, 10.62993 276.37818, 0 297.63804, 0 297.63804, 10.62993 318.8979, 10.62993 318.8979, 0 340.15776, 0 340.15776, 10.62993 361.41762, 10.62993 361.41762, 0 382.67748, 0 382.67748, 10.62993 414.56727, 10.62993 414.56727, 0 435.82713, 0 435.82713, 21.968522 446.45706, 21.968522 446.45706, 43.937044 435.82713, 43.937044 435.82713, 65.905566 446.45706, 65.905566 446.45706, 87.874088 435.82713, 87.874088 435.82712999999995, 109.84261 414.56727, 109.84261 414.56727, 99.21267999999999 382.67748, 99.21267999999999 382.67748, 109.84261 361.41762, 109.84261 361.41762, 99.21267999999999 340.15776, 99.21267999999999 340.15776, 109.84261 318.8979, 109.84261 318.8979, 99.21267999999999 297.63804, 99.21267999999999 297.63804, 109.84261 276.37818, 109.84261 276.37818, 99.21267999999999 255.11831999999998, 99.21267999999999 255.11831999999998, 109.84261 233.85845999999998, 109.84261 233.85845999999998, 99.21267999999999 212.59859999999998, 99.21267999999999 212.59859999999998, 109.84261 191.33873999999997, 109.84261 191.33873999999997, 99.21267999999999 170.07888, 99.21267999999999 170.07888, 109.84261 148.81902, 109.84261 148.81902, 99.21267999999999 127.55915999999999, 99.21267999999999 127.55915999999999, 109.84261 106.29929999999999, 109.84261 106.29929999999999, 99.21267999999999 85.03944, 99.21267999999999 85.03944, 109.84261 63.779579999999996, 109.84261 63.779579999999996, 99.21267999999999 31.889789999999998, 99.21267999999999 31.889789999999998, 109.84261 10.62993, 109.84261000000001 10.62993, 87.874088 0, 87.874088 0, 65.905566 10.62993, 65.905566 10.62993, 43.937044 0, 43.937044 0, 21.968522 10.62993, 21.968522 "/> 
</g>
<!-- Top--> 
<g transform="translate(22.5000185, 132.3426285) " > 
<polygon style="stroke:#000000; fill:none; stroke-width:0.90000074" points="10.62993, 10.62993 35.433099999999996, 10.62993 35.433099999999996, 0 70.86619999999999, 0 70.86619999999999, 10.62993 92.12606, 10.62993 92.12606, 0 127.55915999999999, 0 127.55915999999999, 10.62993 152.36233, 10.62993 152.36233, 31.889789999999998 162.99226, 31.889789999999998 162.99226, 63.779579999999996 152.36233, 63.779579999999996 152.36233, 85.03944 162.99226, 85.03944 162.99226, 106.29929999999999 152.36233, 106.29929999999999 152.36233, 127.55915999999999 162.99226, 127.55915999999999 162.99226, 148.81902 152.36233, 148.81902 152.36233, 170.07888 162.99226, 170.07888 162.99226, 191.33873999999997 152.36233, 191.33873999999997 152.36233, 212.59859999999998 162.99226, 212.59859999999998 162.99226, 233.85845999999998 152.36233, 233.85845999999998 152.36233, 255.11831999999998 162.99226, 255.11831999999998 162.99226, 276.37818 152.36233, 276.37818 152.36233, 297.63804 162.99226, 297.63804 162.99226, 318.8979 152.36233, 318.8979 152.36233, 340.15776 162.99226, 340.15776 162.99226, 361.41762 152.36233, 361.41762 152.36233, 382.67748 162.99226, 382.67748 162.99226, 414.56727 152.36233, 414.56727 152.36233, 435.82713 127.55915999999999, 435.82713 127.55915999999999, 446.45706 92.12606, 446.45706 92.12606, 435.82713 70.86619999999999, 435.82713 70.86619999999999, 446.45706 35.433099999999996, 446.45706 35.433099999999996, 435.82713 10.62993, 435.82712999999995 10.62993, 414.56727 0, 414.56727 0, 382.67748 10.62993, 382.67748 10.62993, 361.41762 0, 361.41762 0, 340.15776 10.62993, 340.15776 10.62993, 318.8979 0, 318.8979 0, 297.63804 10.62993, 297.63804 10.62993, 276.37818 0, 276.37818 0, 255.11831999999998 10.62993, 255.11831999999998 10.62993, 233.85845999999998 0, 233.85845999999998 0, 212.59859999999998 10.62993, 212.59859999999998 10.62993, 191.33873999999997 0, 191.33873999999997 0, 170.07888 10.62993, 170.07888 10.62993, 148.81902 0, 148.81902 0, 127.55915999999999 10.62993, 127.55915999999999 10.62993, 106.29929999999999 0, 106.29929999999999 0, 85.03944 10.62993, 85.03944 10.62993, 63.779579999999996 0, 63.779579999999996 0, 31.889789999999998 10.62993, 31.889789999999998 "/> 
</g>
<!-- Bottom--> 
<g transform="translate(185.4922785, 132.3426285) " > 
<polygon style="stroke:#000000; fill:none; stroke-width:0.90000074" points="10.62993, 10.62993 35.433099999999996, 10.62993 35.433099999999996, 0 70.86619999999999, 0 70.86619999999999, 10.62993 92.12606, 10.62993 92.12606, 0 127.55915999999999, 0 127.55915999999999, 10.62993 152.36233, 10.62993 152.36233, 31.889789999999998 162.99226, 31.889789999999998 162.99226, 63.779579999999996 152.36233, 63.779579999999996 152.36233, 85.03944 162.99226, 85.03944 162.99226, 106.29929999999999 152.36233, 106.29929999999999 152.36233, 127.55915999999999 162.99226, 127.55915999999999 162.99226, 148.81902 152.36233, 148.81902 152.36233, 170.07888 162.99226, 170.07888 162.99226, 191.33873999999997 152.36233, 191.33873999999997 152.36233, 212.59859999999998 162.99226, 212.59859999999998 162.99226, 233.85845999999998 152.36233, 233.85845999999998 152.36233, 255.11831999999998 162.99226, 255.11831999999998 162.99226, 276.37818 152.36233, 276.37818 152.36233, 297.63804 162.99226, 297.63804 162.99226, 318.8979 152.36233, 318.8979 152.36233, 340.15776 162.99226, 340.15776 162.99226, 361.41762 152.36233, 361.41762 152.36233, 382.67748 162.99226, 382.67748 162.99226, 414.56727 152.36233, 414.56727 152.36233, 435.82713 127.55915999999999, 435.82713 127.55915999999999, 446.45706 92.12606, 446.45706 92.12606, 435.82713 70.86619999999999, 435.82713 70.86619999999999, 446.45706 35.433099999999996, 446.45706 35.433099999999996, 435.82713 10.62993, 435.82712999999995 10.62993, 414.56727 0, 414.56727 0, 382.67748 10.62993, 382.67748 10.62993, 361.41762 0, 361.41762 0, 340.15776 10.62993, 340.15776 10.62993, 318.8979 0, 318.8979 0, 297.63804 10.62993, 297.63804 10.62993, 276.37818 0, 276.37818 0, 255.11831999999998 10.62993, 255.11831999999998 10.62993, 233.85845999999998 0, 233.85845999999998 0, 212.59859999999998 10.62993, 212.59859999999998 10.62993, 191.33873999999997 0, 191.33873999999997 0, 170.07888 10.62993, 170.07888 10.62993, 148.81902 0, 148.81902 0, 127.55915999999999 10.62993, 127.55915999999999 10.62993, 106.29929999999999 0, 106.29929999999999 0, 85.03944 10.62993, 85.03944 10.62993, 63.779579999999996 0, 63.779579999999996 0, 31.889789999999998 10.62993, 31.889789999999998 "/> 
</g></svg>